<?xml version="1.0" encoding="UTF-8" standalone="no"?>
<!-- Created with Inkscape (http://www.inkscape.org/) -->

<svg
   xmlns:dc="http://purl.org/dc/elements/1.1/"
   xmlns:cc="http://creativecommons.org/ns#"
   xmlns:rdf="http://www.w3.org/1999/02/22-rdf-syntax-ns#"
   xmlns:svg="http://www.w3.org/2000/svg"
   xmlns="http://www.w3.org/2000/svg"
   xmlns:xlink="http://www.w3.org/1999/xlink"
   xmlns:sodipodi="http://sodipodi.sourceforge.net/DTD/sodipodi-0.dtd"
   xmlns:inkscape="http://www.inkscape.org/namespaces/inkscape"
   width="1313.8132"
   height="1313.8132"
   viewBox="0 0 1231.7 1231.7"
   id="svg2"
   version="1.1"
   inkscape:version="0.92.3 (2405546, 2018-03-11)"
   sodipodi:docname="enterprise_round_concept.svg"
   inkscape:export-filename="/home/taylor/Dropbox (OpenFn)/Comms/Art &amp; Logo/enterprise.png"
   inkscape:export-xdpi="96.760002"
   inkscape:export-ydpi="96.760002">
  <defs
     id="defs4">
    <linearGradient
       inkscape:collect="always"
       id="linearGradient890">
      <stop
         style="stop-color:#83d6e2;stop-opacity:1"
         offset="0"
         id="stop886" />
      <stop
         style="stop-color:#af2783;stop-opacity:0"
         offset="1"
         id="stop888" />
    </linearGradient>
    <linearGradient
       inkscape:collect="always"
       xlink:href="#linearGradient890"
       id="linearGradient892"
       x1="25.822723"
       y1="777.74097"
       x2="843.7348"
       y2="-75.89447"
       gradientUnits="userSpaceOnUse" />
  </defs>
  <sodipodi:namedview
     id="base"
     pagecolor="#ffffff"
     bordercolor="#666666"
     borderopacity="1.0"
     inkscape:pageopacity="0.0"
     inkscape:pageshadow="2"
     inkscape:zoom="0.38454936"
     inkscape:cx="1246.6475"
     inkscape:cy="898.72131"
     inkscape:document-units="px"
     inkscape:current-layer="layer1"
     showgrid="false"
     inkscape:snap-grids="true"
     inkscape:snap-to-guides="true"
     fit-margin-top="200"
     fit-margin-left="200"
     fit-margin-right="200"
     fit-margin-bottom="200"
     inkscape:window-width="1920"
     inkscape:window-height="1025"
     inkscape:window-x="0"
     inkscape:window-y="27"
     inkscape:window-maximized="1"
     units="px" />
  <metadata
     id="metadata7">
    <rdf:RDF>
      <cc:Work
         rdf:about="">
        <dc:format>image/svg+xml</dc:format>
        <dc:type
           rdf:resource="http://purl.org/dc/dcmitype/StillImage" />
        <dc:title></dc:title>
      </cc:Work>
    </rdf:RDF>
  </metadata>
  <g
     inkscape:label="Layer 1"
     inkscape:groupmode="layer"
     id="layer1"
     transform="translate(99.778954,328.13062)">
    <circle
       style="opacity:1;fill:url(#linearGradient892);fill-opacity:1;stroke:#000000;stroke-width:95.30329132;stroke-linecap:butt;stroke-linejoin:miter;stroke-miterlimit:4;stroke-dasharray:none;stroke-dashoffset:0;stroke-opacity:1"
       id="path4157"
       cx="516.07104"
       cy="287.71936"
       r="452.34836"
       inkscape:export-xdpi="96.760002"
       inkscape:export-ydpi="96.760002" />
    <text
       xml:space="preserve"
       style="font-style:normal;font-variant:normal;font-weight:bold;font-stretch:normal;line-height:0%;font-family:'NeuzeitS LT Book';-inkscape-font-specification:'NeuzeitS LT Book, Bold';text-align:start;letter-spacing:0px;word-spacing:0px;writing-mode:lr-tb;text-anchor:start;fill:#000000;fill-opacity:1;stroke:none;stroke-width:1px;stroke-linecap:butt;stroke-linejoin:miter;stroke-opacity:1;"
       x="286.1684"
       y="483.39783"
       id="text3344"
       transform="scale(1.0183501,0.98198055)"><tspan
         sodipodi:role="line"
         id="tspan3346"
         x="286.1684"
         y="483.39783"
         style="font-style:normal;font-variant:normal;font-weight:bold;font-stretch:normal;font-size:500.88208008px;line-height:125%;font-family:Roboto;-inkscape-font-specification:'Roboto Bold';text-align:start;writing-mode:lr-tb;text-anchor:start;fill:#000000;fill-opacity:1;">fn</tspan></text>
    <path
       style="fill:#d6b128;fill-opacity:0;stroke-width:1.83879328"
       d="m 615.67733,1187.7549 c -44.10322,-3.3348 -89.33071,-12.8551 -134.47224,-28.3063 -31.79875,-10.8842 -88.46756,-38.8884 -116.52304,-57.5825 -135.1768,-90.072 -220.12456,-229.98806 -237.38901,-390.99964 -3.89343,-36.31086 -2.62538,-96.04415 2.79099,-131.47372 18.14775,-118.70803 70.46137,-220.30666 156.70989,-304.34736 81.38156,-79.29832 178.94054,-127.32378 295.78513,-145.60646 30.33776,-4.74694 118.6045,-4.74694 148.94226,0 76.56573,11.98025 146.28049,37.4133 206.86424,75.46738 45.57541,28.62699 102.05145,78.71627 134.05395,118.89417 60.1878,75.56315 97.7707,163.66932 112.6131,264.00004 5.1285,34.66752 4.6287,106.82742 -0.9989,144.21207 -23.1425,153.7395 -106.1467,284.23662 -235.19028,369.76062 -97.46754,64.5969 -214.97281,94.9202 -333.18609,85.9817 z m 87.87485,-100.9555 C 852.56789,1070.6172 983.64355,977.38509 1047.6651,842.03733 1090.681,751.09769 1100.6459,649.12579 1076.1165,550.89144 1046.4782,432.19686 965.7899,330.44668 855.81031,273.07907 789.92449,238.71167 719.22191,222.6933 644.17863,225.13182 c -66.84527,2.17211 -117.40039,14.62653 -176.52416,43.48728 -86.96712,42.45225 -153.2682,107.79537 -196.85452,194.01026 -31.21433,61.74276 -45.61719,122.61067 -45.68593,193.0733 -0.0517,52.93409 5.92393,90.47512 22.17492,139.31176 20.60803,61.93021 56.8423,120.39365 103.47057,166.94816 68.85897,68.75002 153.60801,110.67582 250.20748,123.77872 23.31569,3.1626 78.01087,3.7268 102.58519,1.0581 z"
       id="path836"
       inkscape:connector-curvature="0"
       transform="matrix(0.93750007,0,0,0.93750007,-99.778954,-328.13062)" />
    <path
       style="fill:#d6b128;fill-opacity:0;stroke-width:1.83879328"
       d="m 615.67733,1187.7549 c -44.10322,-3.3348 -89.33071,-12.8551 -134.47224,-28.3063 -31.79875,-10.8842 -88.46756,-38.8884 -116.52304,-57.5825 -135.1768,-90.072 -220.12456,-229.98806 -237.38901,-390.99964 -3.89343,-36.31086 -2.62538,-96.04415 2.79099,-131.47372 18.14775,-118.70803 70.46137,-220.30666 156.70989,-304.34736 81.38156,-79.29832 178.94054,-127.32378 295.78513,-145.60646 30.33776,-4.74694 118.6045,-4.74694 148.94226,0 76.56573,11.98025 146.28049,37.4133 206.86424,75.46738 45.57541,28.62699 102.05145,78.71627 134.05395,118.89417 60.1878,75.56315 97.7707,163.66932 112.6131,264.00004 5.1285,34.66752 4.6287,106.82742 -0.9989,144.21207 -23.1425,153.7395 -106.1467,284.23662 -235.19028,369.76062 -97.46754,64.5969 -214.97281,94.9202 -333.18609,85.9817 z m 87.87485,-100.9555 C 852.56789,1070.6172 983.64355,977.38509 1047.6651,842.03733 1090.681,751.09769 1100.6459,649.12579 1076.1165,550.89144 1046.4782,432.19686 965.7899,330.44668 855.81031,273.07907 789.92449,238.71167 719.22191,222.6933 644.17863,225.13182 c -66.84527,2.17211 -117.40039,14.62653 -176.52416,43.48728 -86.96712,42.45225 -153.2682,107.79537 -196.85452,194.01026 -31.21433,61.74276 -45.61719,122.61067 -45.68593,193.0733 -0.0517,52.93409 5.92393,90.47512 22.17492,139.31176 20.60803,61.93021 56.8423,120.39365 103.47057,166.94816 68.85897,68.75002 153.60801,110.67582 250.20748,123.77872 23.31569,3.1626 78.01087,3.7268 102.58519,1.0581 z"
       id="path838"
       inkscape:connector-curvature="0"
       transform="matrix(0.93750007,0,0,0.93750007,-99.778954,-328.13062)" />
    <path
       style="fill:#d6b128;fill-opacity:0;stroke-width:1.83879328"
       d="m 615.67733,1187.7549 c -44.10322,-3.3348 -89.33071,-12.8551 -134.47224,-28.3063 -31.79875,-10.8842 -88.46756,-38.8884 -116.52304,-57.5825 -135.1768,-90.072 -220.12456,-229.98806 -237.38901,-390.99964 -3.89343,-36.31086 -2.62538,-96.04415 2.79099,-131.47372 18.14775,-118.70803 70.46137,-220.30666 156.70989,-304.34736 81.38156,-79.29832 178.94054,-127.32378 295.78513,-145.60646 30.33776,-4.74694 118.6045,-4.74694 148.94226,0 76.56573,11.98025 146.28049,37.4133 206.86424,75.46738 45.57541,28.62699 102.05145,78.71627 134.05395,118.89417 60.1878,75.56315 97.7707,163.66932 112.6131,264.00004 5.1285,34.66752 4.6287,106.82742 -0.9989,144.21207 -23.1425,153.7395 -106.1467,284.23662 -235.19028,369.76062 -97.46754,64.5969 -214.97281,94.9202 -333.18609,85.9817 z m 87.87485,-100.9555 C 852.56789,1070.6172 983.64355,977.38509 1047.6651,842.03733 1090.681,751.09769 1100.6459,649.12579 1076.1165,550.89144 1046.4782,432.19686 965.7899,330.44668 855.81031,273.07907 789.92449,238.71167 719.22191,222.6933 644.17863,225.13182 c -66.84527,2.17211 -117.40039,14.62653 -176.52416,43.48728 -86.96712,42.45225 -153.2682,107.79537 -196.85452,194.01026 -31.21433,61.74276 -45.61719,122.61067 -45.68593,193.0733 -0.0517,52.93409 5.92393,90.47512 22.17492,139.31176 20.60803,61.93021 56.8423,120.39365 103.47057,166.94816 68.85897,68.75002 153.60801,110.67582 250.20748,123.77872 23.31569,3.1626 78.01087,3.7268 102.58519,1.0581 z"
       id="path840"
       inkscape:connector-curvature="0"
       transform="matrix(0.93750007,0,0,0.93750007,-99.778954,-328.13062)" />
    <path
       style="fill:#d6b128;fill-opacity:0;stroke-width:1.83879328"
       d="m 615.67733,1187.7549 c -44.10322,-3.3348 -89.33071,-12.8551 -134.47224,-28.3063 -31.79875,-10.8842 -88.46756,-38.8884 -116.52304,-57.5825 -135.1768,-90.072 -220.12456,-229.98806 -237.38901,-390.99964 -3.89343,-36.31086 -2.62538,-96.04415 2.79099,-131.47372 18.14775,-118.70803 70.46137,-220.30666 156.70989,-304.34736 81.38156,-79.29832 178.94054,-127.32378 295.78513,-145.60646 30.33776,-4.74694 118.6045,-4.74694 148.94226,0 76.56573,11.98025 146.28049,37.4133 206.86424,75.46738 45.57541,28.62699 102.05145,78.71627 134.05395,118.89417 60.1878,75.56315 97.7707,163.66932 112.6131,264.00004 5.1285,34.66752 4.6287,106.82742 -0.9989,144.21207 -23.1425,153.7395 -106.1467,284.23662 -235.19028,369.76062 -97.46754,64.5969 -214.97281,94.9202 -333.18609,85.9817 z m 87.87485,-100.9555 C 852.56789,1070.6172 983.64355,977.38509 1047.6651,842.03733 1090.681,751.09769 1100.6459,649.12579 1076.1165,550.89144 1046.4782,432.19686 965.7899,330.44668 855.81031,273.07907 789.92449,238.71167 719.22191,222.6933 644.17863,225.13182 c -66.84527,2.17211 -117.40039,14.62653 -176.52416,43.48728 -86.96712,42.45225 -153.2682,107.79537 -196.85452,194.01026 -31.21433,61.74276 -45.61719,122.61067 -45.68593,193.0733 -0.0517,52.93409 5.92393,90.47512 22.17492,139.31176 20.60803,61.93021 56.8423,120.39365 103.47057,166.94816 68.85897,68.75002 153.60801,110.67582 250.20748,123.77872 23.31569,3.1626 78.01087,3.7268 102.58519,1.0581 z"
       id="path842"
       inkscape:connector-curvature="0"
       transform="matrix(0.93750007,0,0,0.93750007,-99.778954,-328.13062)" />
    <path
       style="fill:#d6b128;fill-opacity:0;stroke-width:1.83879328"
       d="M 598.2088,1083.9163 C 459.96309,1064.6955 336.8412,977.14814 273.59574,853.09623 211.60443,731.50424 210.29443,590.0187 270.03152,468.14574 318.19833,369.87797 400.01883,294.78864 502.5473,254.75846 c 72.09291,-28.14722 157.90636,-35.7423 235.77387,-20.86759 120.51857,23.02217 226.38066,97.76717 289.65303,204.51245 29.8383,50.33957 48.442,104.95013 56.799,166.73252 3.7484,27.71185 2.8707,84.32954 -1.7835,115.03862 -20.0564,132.33621 -99.68921,247.35988 -216.93371,313.34454 -39.8647,22.4357 -85.68922,38.6275 -136.37347,48.1868 -26.67512,5.0311 -102.06943,6.2987 -131.47372,2.2105 z M 545.80319,745.80353 v -111.247 h 28.50129 28.5013 v -28.50129 -28.5013 h -28.71517 -28.71514 l 0.72154,-17.96442 c 0.8529,-21.23497 4.66919,-29.33651 16.90031,-35.87745 6.56822,-3.51254 10.47505,-4.08012 28.08429,-4.08012 h 20.45474 l 0.90984,-28.50129 c 0.5004,-15.67571 0.66402,-28.78672 0.36358,-29.13557 -0.30044,-0.34886 -8.67331,-1.86481 -18.60636,-3.3688 -40.07727,-6.06818 -77.92317,3.64898 -100.65698,25.84426 -17.43891,17.02585 -24.68926,36.48541 -26.2889,70.55817 l -1.05749,22.52522 h -20.87861 -20.8786 v 28.5013 28.50129 h 21.14612 21.14613 v 111.247 111.24699 h 39.53405 39.53406 z m 172.84657,13.44503 c 0,-96.51046 0.0513,-97.87679 3.88285,-103.4686 12.87032,-18.783 45.36498,-26.32405 68.60414,-15.92099 4.12528,1.84668 9.02725,5.07788 10.89323,7.18043 8.11881,9.14804 8.3938,12.84348 8.47874,113.93417 l 0.0807,96.07695 h 39.64414 39.64417 L 889.20916,752.699 c -0.65478,-102.1977 -0.75464,-104.63616 -4.83834,-118.14247 -9.76297,-32.28972 -27.38186,-50.30916 -56.64311,-57.93074 -12.39613,-3.22879 -42.18462,-3.61749 -56.12214,-0.73233 -14.17366,2.93405 -34.50174,13.17694 -45.14874,22.74951 -5.09675,4.58242 -9.76583,8.33167 -10.37574,8.33167 -0.60991,0 -1.12021,-4.75788 -1.13402,-10.57307 -0.0484,-20.38227 3.11115,-18.84763 -38.80402,-18.84763 h -36.56141 v 139.74829 139.74829 h 39.53406 39.53406 z"
       id="path844"
       inkscape:connector-curvature="0"
       transform="matrix(0.93750007,0,0,0.93750007,-99.778954,-328.13062)" />
    <path
       style="fill:#d6b128;fill-opacity:0;stroke-width:1.83879328"
       d="m 468.57387,743.96474 v -111.247 h -21.14612 -21.14613 v -26.6625 -26.6625 h 21.14613 21.14612 v -17.54606 c 0,-22.05318 4.20379,-42.83858 11.40536,-56.39309 7.51771,-14.14954 24.22377,-29.74901 39.06703,-36.47926 16.48815,-7.47609 41.90237,-11.66387 61.694,-10.166 15.35844,1.16236 28.80442,3.51123 30.64689,5.3537 0.51416,0.51416 0.34441,12.8555 -0.37726,27.42519 l -1.31209,26.49035 -14.30128,-0.82788 c -19.43073,-1.12483 -31.52311,1.99716 -40.35023,10.41755 -8.5455,8.15175 -11.05805,16.44747 -11.07164,36.55545 l -0.0103,15.17005 h 28.5013 28.5013 v 26.6625 26.6625 h -28.5013 -28.5013 v 111.247 111.24699 h -37.69526 -37.69526 z"
       id="path846"
       inkscape:connector-curvature="0"
       transform="matrix(0.93750007,0,0,0.93750007,-99.778954,-328.13062)" />
    <path
       style="fill:#d6b128;fill-opacity:0;stroke-width:1.83879328"
       d="m 468.57387,743.96474 v -111.247 h -21.14612 -21.14613 v -26.6625 -26.6625 h 21.14613 21.14612 v -17.54606 c 0,-22.05318 4.20379,-42.83858 11.40536,-56.39309 7.51771,-14.14954 24.22377,-29.74901 39.06703,-36.47926 16.48815,-7.47609 41.90237,-11.66387 61.694,-10.166 15.35844,1.16236 28.80442,3.51123 30.64689,5.3537 0.51416,0.51416 0.34441,12.8555 -0.37726,27.42519 l -1.31209,26.49035 -14.30128,-0.82788 c -19.43073,-1.12483 -31.52311,1.99716 -40.35023,10.41755 -8.5455,8.15175 -11.05805,16.44747 -11.07164,36.55545 l -0.0103,15.17005 h 28.5013 28.5013 v 26.6625 26.6625 h -28.5013 -28.5013 v 111.247 111.24699 h -37.69526 -37.69526 z"
       id="path848"
       inkscape:connector-curvature="0"
       transform="matrix(0.93750007,0,0,0.93750007,-99.778954,-328.13062)" />
  </g>
</svg>
