<?xml version="1.0" encoding="UTF-8" standalone="no"?>
<!-- Created with Inkscape (http://www.inkscape.org/) -->

<svg
   xmlns:dc="http://purl.org/dc/elements/1.1/"
   xmlns:cc="http://creativecommons.org/ns#"
   xmlns:rdf="http://www.w3.org/1999/02/22-rdf-syntax-ns#"
   xmlns:svg="http://www.w3.org/2000/svg"
   xmlns="http://www.w3.org/2000/svg"
   xmlns:xlink="http://www.w3.org/1999/xlink"
   xmlns:sodipodi="http://sodipodi.sourceforge.net/DTD/sodipodi-0.dtd"
   xmlns:inkscape="http://www.inkscape.org/namespaces/inkscape"
   width="96"
   height="96"
   viewBox="0 0 90.000007 90.000007"
   id="svg2"
   version="1.1"
   inkscape:version="0.92.4 (fd57863, 2020-04-02)"
   sodipodi:docname="logo.svg"
   inkscape:export-filename="/home/taylor/docs/docs/images/logo.svg.png"
   inkscape:export-xdpi="96.760002"
   inkscape:export-ydpi="96.760002">
  <defs
     id="defs4">
    <linearGradient
       inkscape:collect="always"
       id="linearGradient890">
      <stop
         style="stop-color:#83d6e2;stop-opacity:1"
         offset="0"
         id="stop886" />
      <stop
         style="stop-color:#af2783;stop-opacity:0"
         offset="1"
         id="stop888" />
    </linearGradient>
    <linearGradient
       inkscape:collect="always"
       xlink:href="#linearGradient890"
       id="linearGradient892"
       x1="25.822723"
       y1="777.74097"
       x2="843.7348"
       y2="-75.89447"
       gradientUnits="userSpaceOnUse"
       gradientTransform="matrix(0.09000001,0,0,0.09000001,469.62465,261.82462)" />
  </defs>
  <sodipodi:namedview
     id="base"
     pagecolor="#ffffff"
     bordercolor="#666666"
     borderopacity="1.0"
     inkscape:pageopacity="0.0"
     inkscape:pageshadow="2"
     inkscape:zoom="8.7013587"
     inkscape:cx="48.943933"
     inkscape:cy="49.032294"
     inkscape:document-units="px"
     inkscape:current-layer="layer2"
     showgrid="false"
     inkscape:snap-grids="true"
     inkscape:snap-to-guides="true"
     fit-margin-top="0"
     fit-margin-left="0"
     fit-margin-right="0"
     fit-margin-bottom="0"
     inkscape:window-width="1920"
     inkscape:window-height="1025"
     inkscape:window-x="0"
     inkscape:window-y="27"
     inkscape:window-maximized="1"
     units="px" />
  <metadata
     id="metadata7">
    <rdf:RDF>
      <cc:Work
         rdf:about="">
        <dc:format>image/svg+xml</dc:format>
        <dc:type
           rdf:resource="http://purl.org/dc/dcmitype/StillImage" />
        <dc:title></dc:title>
      </cc:Work>
    </rdf:RDF>
  </metadata>
  <g
     inkscape:groupmode="layer"
     id="layer2"
     inkscape:label="Layer 2">
    <circle
       style="opacity:1;fill:#ffffff;fill-opacity:1;stroke:#000000;stroke-width:8.57729721;stroke-linecap:butt;stroke-linejoin:miter;stroke-miterlimit:4;stroke-dasharray:none;stroke-dashoffset:0;stroke-opacity:1"
       id="path4157-5"
       cx="45.000004"
       cy="45.000004"
       r="40.711353"
       inkscape:export-xdpi="96.760002"
       inkscape:export-ydpi="96.760002" />
  </g>
  <g
     inkscape:label="Layer 1"
     inkscape:groupmode="layer"
     id="layer1"
     transform="translate(-471.07104,-242.71936)">
    <circle
       style="opacity:1;fill:url(#linearGradient892);fill-opacity:1;stroke:#000000;stroke-width:8.57729721;stroke-linecap:butt;stroke-linejoin:miter;stroke-miterlimit:4;stroke-dasharray:none;stroke-dashoffset:0;stroke-opacity:1"
       id="path4157"
       cx="516.07104"
       cy="287.71936"
       r="40.711353"
       inkscape:export-xdpi="96.760002"
       inkscape:export-ydpi="96.760002" />
    <text
       xml:space="preserve"
       style="font-style:normal;font-variant:normal;font-weight:bold;font-stretch:normal;font-size:1.08000004px;line-height:0%;font-family:'NeuzeitS LT Book';-inkscape-font-specification:'NeuzeitS LT Book, Bold';text-align:start;letter-spacing:0px;word-spacing:0px;writing-mode:lr-tb;text-anchor:start;fill:#000000;fill-opacity:1;stroke:none;stroke-width:0.09px;stroke-linecap:butt;stroke-linejoin:miter;stroke-opacity:1"
       x="486.91742"
       y="310.13492"
       id="text3344"
       transform="scale(1.0183501,0.98198055)"><tspan
         sodipodi:role="line"
         id="tspan3346"
         x="486.91742"
         y="310.13492"
         style="font-style:normal;font-variant:normal;font-weight:bold;font-stretch:normal;font-size:45.07939148px;line-height:125%;font-family:Roboto;-inkscape-font-specification:'Roboto Bold';text-align:start;writing-mode:lr-tb;text-anchor:start;fill:#000000;fill-opacity:1;stroke-width:0.09px">fn</tspan></text>
    <path
       style="fill:#d6b128;fill-opacity:0;stroke-width:0.15514821"
       d="m 512.59232,332.50969 c -3.72121,-0.28137 -7.53728,-1.08465 -11.34609,-2.38834 -2.68302,-0.91836 -7.46445,-3.28121 -9.83164,-4.85853 -11.40554,-7.59982 -18.57301,-19.40524 -20.0297,-32.9906 -0.32851,-3.06372 -0.22151,-8.10372 0.23549,-11.09309 1.53122,-10.01599 5.94518,-18.58838 13.2224,-25.67931 6.86657,-6.6908 15.09811,-10.74295 24.95688,-12.28555 2.55974,-0.40052 10.00725,-0.40052 12.567,0 6.46023,1.01083 12.34242,3.15675 17.45417,6.36756 3.84543,2.4154 8.6106,6.64169 11.31081,10.0317 5.07834,6.37564 8.2494,13.8096 9.50173,22.275 0.43272,2.92508 0.39055,9.01357 -0.0843,12.1679 -1.95265,12.97177 -8.95613,23.98247 -19.84419,31.19856 -8.22382,5.45036 -18.13833,8.00889 -28.11258,7.2547 z m 7.41444,-8.51812 c 12.57321,-1.36537 23.63272,-9.23183 29.03454,-20.6518 3.62946,-7.67304 4.47025,-16.27692 2.40058,-24.56544 -2.50073,-10.01486 -9.3088,-18.60003 -18.58833,-23.44042 -5.55912,-2.89975 -11.52465,-4.2513 -17.85643,-4.04555 -5.64007,0.18327 -9.90566,1.23411 -14.89423,3.66924 -7.33785,3.58191 -12.932,9.09523 -16.6096,16.36962 -2.63371,5.20954 -3.84895,10.34527 -3.85475,16.29056 -0.004,4.46631 0.49983,7.63384 1.87101,11.75443 1.7388,5.22536 4.79607,10.15822 8.73033,14.08625 5.80998,5.80079 12.96068,9.33828 21.11126,10.44383 1.96726,0.26685 6.58217,0.31445 8.65562,0.0893 z"
       id="path836"
       inkscape:connector-curvature="0" />
    <path
       style="fill:#d6b128;fill-opacity:0;stroke-width:0.15514821"
       d="m 512.59232,332.50969 c -3.72121,-0.28137 -7.53728,-1.08465 -11.34609,-2.38834 -2.68302,-0.91836 -7.46445,-3.28121 -9.83164,-4.85853 -11.40554,-7.59982 -18.57301,-19.40524 -20.0297,-32.9906 -0.32851,-3.06372 -0.22151,-8.10372 0.23549,-11.09309 1.53122,-10.01599 5.94518,-18.58838 13.2224,-25.67931 6.86657,-6.6908 15.09811,-10.74295 24.95688,-12.28555 2.55974,-0.40052 10.00725,-0.40052 12.567,0 6.46023,1.01083 12.34242,3.15675 17.45417,6.36756 3.84543,2.4154 8.6106,6.64169 11.31081,10.0317 5.07834,6.37564 8.2494,13.8096 9.50173,22.275 0.43272,2.92508 0.39055,9.01357 -0.0843,12.1679 -1.95265,12.97177 -8.95613,23.98247 -19.84419,31.19856 -8.22382,5.45036 -18.13833,8.00889 -28.11258,7.2547 z m 7.41444,-8.51812 c 12.57321,-1.36537 23.63272,-9.23183 29.03454,-20.6518 3.62946,-7.67304 4.47025,-16.27692 2.40058,-24.56544 -2.50073,-10.01486 -9.3088,-18.60003 -18.58833,-23.44042 -5.55912,-2.89975 -11.52465,-4.2513 -17.85643,-4.04555 -5.64007,0.18327 -9.90566,1.23411 -14.89423,3.66924 -7.33785,3.58191 -12.932,9.09523 -16.6096,16.36962 -2.63371,5.20954 -3.84895,10.34527 -3.85475,16.29056 -0.004,4.46631 0.49983,7.63384 1.87101,11.75443 1.7388,5.22536 4.79607,10.15822 8.73033,14.08625 5.80998,5.80079 12.96068,9.33828 21.11126,10.44383 1.96726,0.26685 6.58217,0.31445 8.65562,0.0893 z"
       id="path838"
       inkscape:connector-curvature="0" />
    <path
       style="fill:#d6b128;fill-opacity:0;stroke-width:0.15514821"
       d="m 512.59232,332.50969 c -3.72121,-0.28137 -7.53728,-1.08465 -11.34609,-2.38834 -2.68302,-0.91836 -7.46445,-3.28121 -9.83164,-4.85853 -11.40554,-7.59982 -18.57301,-19.40524 -20.0297,-32.9906 -0.32851,-3.06372 -0.22151,-8.10372 0.23549,-11.09309 1.53122,-10.01599 5.94518,-18.58838 13.2224,-25.67931 6.86657,-6.6908 15.09811,-10.74295 24.95688,-12.28555 2.55974,-0.40052 10.00725,-0.40052 12.567,0 6.46023,1.01083 12.34242,3.15675 17.45417,6.36756 3.84543,2.4154 8.6106,6.64169 11.31081,10.0317 5.07834,6.37564 8.2494,13.8096 9.50173,22.275 0.43272,2.92508 0.39055,9.01357 -0.0843,12.1679 -1.95265,12.97177 -8.95613,23.98247 -19.84419,31.19856 -8.22382,5.45036 -18.13833,8.00889 -28.11258,7.2547 z m 7.41444,-8.51812 c 12.57321,-1.36537 23.63272,-9.23183 29.03454,-20.6518 3.62946,-7.67304 4.47025,-16.27692 2.40058,-24.56544 -2.50073,-10.01486 -9.3088,-18.60003 -18.58833,-23.44042 -5.55912,-2.89975 -11.52465,-4.2513 -17.85643,-4.04555 -5.64007,0.18327 -9.90566,1.23411 -14.89423,3.66924 -7.33785,3.58191 -12.932,9.09523 -16.6096,16.36962 -2.63371,5.20954 -3.84895,10.34527 -3.85475,16.29056 -0.004,4.46631 0.49983,7.63384 1.87101,11.75443 1.7388,5.22536 4.79607,10.15822 8.73033,14.08625 5.80998,5.80079 12.96068,9.33828 21.11126,10.44383 1.96726,0.26685 6.58217,0.31445 8.65562,0.0893 z"
       id="path840"
       inkscape:connector-curvature="0" />
    <path
       style="fill:#d6b128;fill-opacity:0;stroke-width:0.15514821"
       d="m 512.59232,332.50969 c -3.72121,-0.28137 -7.53728,-1.08465 -11.34609,-2.38834 -2.68302,-0.91836 -7.46445,-3.28121 -9.83164,-4.85853 -11.40554,-7.59982 -18.57301,-19.40524 -20.0297,-32.9906 -0.32851,-3.06372 -0.22151,-8.10372 0.23549,-11.09309 1.53122,-10.01599 5.94518,-18.58838 13.2224,-25.67931 6.86657,-6.6908 15.09811,-10.74295 24.95688,-12.28555 2.55974,-0.40052 10.00725,-0.40052 12.567,0 6.46023,1.01083 12.34242,3.15675 17.45417,6.36756 3.84543,2.4154 8.6106,6.64169 11.31081,10.0317 5.07834,6.37564 8.2494,13.8096 9.50173,22.275 0.43272,2.92508 0.39055,9.01357 -0.0843,12.1679 -1.95265,12.97177 -8.95613,23.98247 -19.84419,31.19856 -8.22382,5.45036 -18.13833,8.00889 -28.11258,7.2547 z m 7.41444,-8.51812 c 12.57321,-1.36537 23.63272,-9.23183 29.03454,-20.6518 3.62946,-7.67304 4.47025,-16.27692 2.40058,-24.56544 -2.50073,-10.01486 -9.3088,-18.60003 -18.58833,-23.44042 -5.55912,-2.89975 -11.52465,-4.2513 -17.85643,-4.04555 -5.64007,0.18327 -9.90566,1.23411 -14.89423,3.66924 -7.33785,3.58191 -12.932,9.09523 -16.6096,16.36962 -2.63371,5.20954 -3.84895,10.34527 -3.85475,16.29056 -0.004,4.46631 0.49983,7.63384 1.87101,11.75443 1.7388,5.22536 4.79607,10.15822 8.73033,14.08625 5.80998,5.80079 12.96068,9.33828 21.11126,10.44383 1.96726,0.26685 6.58217,0.31445 8.65562,0.0893 z"
       id="path842"
       inkscape:connector-curvature="0" />
    <path
       style="fill:#d6b128;fill-opacity:0;stroke-width:0.15514821"
       d="m 511.11842,323.74831 c -11.66449,-1.62176 -22.0529,-9.00857 -27.38923,-19.47545 -5.23052,-10.25932 -5.34105,-22.19717 -0.30074,-32.4802 4.06408,-8.29134 10.96768,-14.62701 19.61853,-18.00455 6.08284,-2.37493 13.32335,-3.01576 19.89342,-1.76071 10.16875,1.9425 19.10087,8.24911 24.43948,17.25574 2.5176,4.24741 4.08729,8.85517 4.79241,14.06806 0.31627,2.33819 0.24222,7.11531 -0.15048,9.70639 -1.69226,11.16587 -8.41128,20.87099 -18.30378,26.43845 -3.36359,1.89301 -7.23003,3.25919 -11.50652,4.06576 -2.25071,0.4245 -8.61211,0.53145 -11.09309,0.18651 z m -4.42173,-28.52827 v -9.38647 h 2.4048 2.4048 v -2.40479 -2.4048 h -2.42285 -2.42284 l 0.0609,-1.51575 c 0.072,-1.7917 0.39397,-2.47527 1.42597,-3.02716 0.55419,-0.29637 0.88383,-0.34426 2.36961,-0.34426 h 1.72587 l 0.0768,-2.4048 c 0.0422,-1.32263 0.056,-2.42888 0.0307,-2.45831 -0.0254,-0.0294 -0.73181,-0.15734 -1.56991,-0.28424 -3.38152,-0.51201 -6.57477,0.30788 -8.49293,2.18061 -1.47141,1.43655 -2.08316,3.07845 -2.21813,5.95334 l -0.0892,1.90057 h -1.76164 -1.76163 v 2.4048 2.40479 h 1.7842 1.78421 v 9.38647 9.38647 h 3.33569 3.33568 z m 14.58393,1.13442 c 0,-8.14307 0.004,-8.25835 0.32762,-8.73016 1.08593,-1.58482 3.82767,-2.22109 5.78847,-1.34333 0.34807,0.15581 0.76168,0.42844 0.91912,0.60585 0.68503,0.77186 0.70823,1.08366 0.71539,9.61319 l 0.007,8.1065 h 3.34498 3.34498 l -0.0564,-8.80466 c -0.0552,-8.62294 -0.0637,-8.82868 -0.40823,-9.96828 -0.82375,-2.72444 -2.31034,-4.24483 -4.77926,-4.8879 -1.04593,-0.27243 -3.55933,-0.30523 -4.73531,-0.0618 -1.1959,0.24756 -2.91108,1.1118 -3.80942,1.91949 -0.43004,0.38664 -0.824,0.70298 -0.87546,0.70298 -0.0515,0 -0.0945,-0.40145 -0.0957,-0.8921 -0.004,-1.71976 0.2625,-1.59027 -3.27409,-1.59027 h -3.08487 v 11.79126 11.79127 h 3.33569 3.33568 z"
       id="path844"
       inkscape:connector-curvature="0" />
    <path
       style="fill:#d6b128;fill-opacity:0;stroke-width:0.15514821"
       d="m 500.18047,295.06489 v -9.38646 h -1.78421 -1.7842 v -2.24965 -2.24965 h 1.7842 1.78421 v -1.48045 c 0,-1.86074 0.35469,-3.61451 0.96232,-4.75817 0.63431,-1.19387 2.04389,-2.51007 3.29629,-3.07794 1.39118,-0.63079 3.53551,-0.98414 5.20543,-0.85775 1.29587,0.0981 2.43037,0.29626 2.58583,0.45172 0.0434,0.0434 0.0291,1.08468 -0.0318,2.314 l -0.11071,2.23512 -1.20667,-0.0698 c -1.63947,-0.0949 -2.65976,0.16851 -3.40455,0.87898 -0.72103,0.6878 -0.93302,1.38775 -0.93417,3.08436 l -8.7e-4,1.27998 h 2.4048 2.40479 v 2.24965 2.24965 h -2.40479 -2.4048 v 9.38646 9.38647 h -3.18054 -3.18054 z"
       id="path846"
       inkscape:connector-curvature="0" />
    <path
       style="fill:#d6b128;fill-opacity:0;stroke-width:0.15514821"
       d="m 500.18047,295.06489 v -9.38646 h -1.78421 -1.7842 v -2.24965 -2.24965 h 1.7842 1.78421 v -1.48045 c 0,-1.86074 0.35469,-3.61451 0.96232,-4.75817 0.63431,-1.19387 2.04389,-2.51007 3.29629,-3.07794 1.39118,-0.63079 3.53551,-0.98414 5.20543,-0.85775 1.29587,0.0981 2.43037,0.29626 2.58583,0.45172 0.0434,0.0434 0.0291,1.08468 -0.0318,2.314 l -0.11071,2.23512 -1.20667,-0.0698 c -1.63947,-0.0949 -2.65976,0.16851 -3.40455,0.87898 -0.72103,0.6878 -0.93302,1.38775 -0.93417,3.08436 l -8.7e-4,1.27998 h 2.4048 2.40479 v 2.24965 2.24965 h -2.40479 -2.4048 v 9.38646 9.38647 h -3.18054 -3.18054 z"
       id="path848"
       inkscape:connector-curvature="0" />
  </g>
</svg>
